<svg id="iconinstagram" xmlns="http://www.w3.org/2000/svg" viewBox="0 0 80.88 80.8"><path d="M40.41 77.4c-5.66 0-11.34.31-17-.07-11.25-.75-18.62-6.55-19.5-17.64A284.24 284.24 0 014 19.89C4.58 11 10.54 4.57 19.36 4a313.82 313.82 0 0142.27 0c8.56.58 14.6 6.75 15.13 15.49.83 13.39 1.31 27 .16 40.28-1 11.42-8.44 17-20 17.61-5.48.3-11 .05-16.48.05zm-.2-7c5.48 0 11 .2 16.46 0 8.66-.4 13.7-5.08 14-13.74.39-11 .39-22 0-32.93-.3-8.37-4.75-13.16-13.05-13.53a397.78 397.78 0 00-34.88.06C15.46 10.59 11 14.58 10.6 21.8a332.9 332.9 0 000 36.84C11 66.12 16.12 70 23.74 70.38c5.48.27 10.98.05 16.47.05z"/><path d="M40.67 21.23A19 19 0 1121.38 40a19.12 19.12 0 0119.29-18.77zm-.19 7a12 12 0 00-12.13 11.84 12.13 12.13 0 1012.13-11.86zM66.76 20.36c-3.12 2-4.86 4-6.54 3.93-1.45-.05-2.83-2.4-4.24-3.74 1.42-1.51 2.71-4 4.31-4.22s3.36 1.97 6.47 4.03z"/></svg>