<svg id="iconwhatsapp" xmlns="http://www.w3.org/2000/svg" viewBox="0 0 79.26 78.2"><path d="M37.16 3h1a24.23 24.23 0 003.29.88C57 5.73 67.66 14 72.88 28.69s1.77 27.89-9 38.53c-11 10.82-24.5 13.65-39.19 8.47-3.63-1.28-6.82-1.94-10.47-.4S7.05 77 4 73.9c-2.83-3-1.83-6.23-.47-9.32s1-5.74-.41-8.9A37 37 0 0126 5.39C29.64 4.25 33.45 3.78 37.16 3zM9.31 69.33a21.58 21.58 0 003.61-.85c4.57-2.11 8.61-1.74 13.46.31 11.34 4.8 22.32 2.71 31.46-5.48 8.46-7.58 12-17.23 9.45-28.72-2.78-12.41-10.53-20.41-22.6-23.2-12.69-2.92-23.86.8-31.76 11.51-7.31 9.93-8 20.88-2.41 31.85 1.61 3.14 2.05 5.7.66 8.82a59.73 59.73 0 00-1.87 5.76z"/><path d="M47.75 57.88C37.48 57.83 21.89 44.78 20.1 35c-.27-1.44-.6-3.26 0-4.39a26.8 26.8 0 015-6.24c.43-.41 3.06.38 3.33 1.1 1.11 3.1 3.34 7.3 2.16 9.4-2.06 3.66-.95 5.62 1.27 7.7a40.55 40.55 0 007.86 6 4.75 4.75 0 004.54-.76c1.9-2.23 3.63-3.41 6.2-1.43 1.93 1.47 3.68 3.18 5.52 4.78-1.93 2.06-3.78 4.21-5.84 6.11-.6.57-1.84.49-2.39.61z"/></svg>